<?xml version="1.0" encoding="UTF-8"?>
<!DOCTYPE svg PUBLIC "-//W3C//DTD SVG 1.1//EN" "http://www.w3.org/Graphics/SVG/1.1/DTD/svg11.dtd">
<svg version="1.2" width="135.47mm" height="135.47mm" viewBox="0 0 13547 13547" preserveAspectRatio="xMidYMid" fill-rule="evenodd" stroke-width="28.222" stroke-linejoin="round" xmlns="http://www.w3.org/2000/svg" xmlns:ooo="http://xml.openoffice.org/svg/export" xmlns:xlink="http://www.w3.org/1999/xlink" xmlns:presentation="http://sun.com/xmlns/staroffice/presentation" xmlns:smil="http://www.w3.org/2001/SMIL20/" xmlns:anim="urn:oasis:names:tc:opendocument:xmlns:animation:1.0" xml:space="preserve">
 <defs class="ClipPathGroup">
  <clipPath id="presentation_clip_path" clipPathUnits="userSpaceOnUse">
   <rect x="0" y="0" width="13547" height="13547"/>
  </clipPath>
  <clipPath id="presentation_clip_path_shrink" clipPathUnits="userSpaceOnUse">
   <rect x="13" y="13" width="13520" height="13520"/>
  </clipPath>
 </defs>
 <defs class="TextShapeIndex">
  <g ooo:slide="id1" ooo:id-list="id3 id4"/>
 </defs>
 <defs class="EmbeddedBulletChars">
  <g id="bullet-char-template-57356" transform="scale(0.00048828125,-0.00048828125)">
   <path d="M 580,1141 L 1163,571 580,0 -4,571 580,1141 Z"/>
  </g>
  <g id="bullet-char-template-57354" transform="scale(0.00048828125,-0.00048828125)">
   <path d="M 8,1128 L 1137,1128 1137,0 8,0 8,1128 Z"/>
  </g>
  <g id="bullet-char-template-10146" transform="scale(0.00048828125,-0.00048828125)">
   <path d="M 174,0 L 602,739 174,1481 1456,739 174,0 Z M 1358,739 L 309,1346 659,739 1358,739 Z"/>
  </g>
  <g id="bullet-char-template-10132" transform="scale(0.00048828125,-0.00048828125)">
   <path d="M 2015,739 L 1276,0 717,0 1260,543 174,543 174,936 1260,936 717,1481 1274,1481 2015,739 Z"/>
  </g>
  <g id="bullet-char-template-10007" transform="scale(0.00048828125,-0.00048828125)">
   <path d="M 0,-2 C -7,14 -16,27 -25,37 L 356,567 C 262,823 215,952 215,954 215,979 228,992 255,992 264,992 276,990 289,987 310,991 331,999 354,1012 L 381,999 492,748 772,1049 836,1024 860,1049 C 881,1039 901,1025 922,1006 886,937 835,863 770,784 769,783 710,716 594,584 L 774,223 C 774,196 753,168 711,139 L 727,119 C 717,90 699,76 672,76 641,76 570,178 457,381 L 164,-76 C 142,-110 111,-127 72,-127 30,-127 9,-110 8,-76 1,-67 -2,-52 -2,-32 -2,-23 -1,-13 0,-2 Z"/>
  </g>
  <g id="bullet-char-template-10004" transform="scale(0.00048828125,-0.00048828125)">
   <path d="M 285,-33 C 182,-33 111,30 74,156 52,228 41,333 41,471 41,549 55,616 82,672 116,743 169,778 240,778 293,778 328,747 346,684 L 369,508 C 377,444 397,411 428,410 L 1163,1116 C 1174,1127 1196,1133 1229,1133 1271,1133 1292,1118 1292,1087 L 1292,965 C 1292,929 1282,901 1262,881 L 442,47 C 390,-6 338,-33 285,-33 Z"/>
  </g>
  <g id="bullet-char-template-9679" transform="scale(0.00048828125,-0.00048828125)">
   <path d="M 813,0 C 632,0 489,54 383,161 276,268 223,411 223,592 223,773 276,916 383,1023 489,1130 632,1184 813,1184 992,1184 1136,1130 1245,1023 1353,916 1407,772 1407,592 1407,412 1353,268 1245,161 1136,54 992,0 813,0 Z"/>
  </g>
  <g id="bullet-char-template-8226" transform="scale(0.00048828125,-0.00048828125)">
   <path d="M 346,457 C 273,457 209,483 155,535 101,586 74,649 74,723 74,796 101,859 155,911 209,963 273,989 346,989 419,989 480,963 531,910 582,859 608,796 608,723 608,648 583,586 532,535 482,483 420,457 346,457 Z"/>
  </g>
  <g id="bullet-char-template-8211" transform="scale(0.00048828125,-0.00048828125)">
   <path d="M -4,459 L 1135,459 1135,606 -4,606 -4,459 Z"/>
  </g>
  <g id="bullet-char-template-61548" transform="scale(0.00048828125,-0.00048828125)">
   <path d="M 173,740 C 173,903 231,1043 346,1159 462,1274 601,1332 765,1332 928,1332 1067,1274 1183,1159 1299,1043 1357,903 1357,740 1357,577 1299,437 1183,322 1067,206 928,148 765,148 601,148 462,206 346,322 231,437 173,577 173,740 Z"/>
  </g>
 </defs>
 <g>
  <g id="id2" class="Master_Slide">
   <g id="bg-id2" class="Background"/>
   <g id="bo-id2" class="BackgroundObjects"/>
  </g>
 </g>
 <g class="SlideGroup">
  <g>
   <g id="container-id1">
    <g id="id1" class="Slide" clip-path="url(#presentation_clip_path)">
     <g class="Page">
      <g class="com.sun.star.drawing.CustomShape">
       <g id="id3">
        <rect class="BoundingBox" stroke="none" fill="none" x="7850" y="1850" width="5403" height="9903"/>
        <path fill="rgb(255,255,255)" stroke="none" d="M 10551,11751 L 7851,11751 7851,1851 13251,1851 13251,11751 10551,11751 Z"/>
        <path fill="none" stroke="rgb(255,255,255)" d="M 10551,11751 L 7851,11751 7851,1851 13251,1851 13251,11751 10551,11751 Z"/>
       </g>
      </g>
      <g class="Graphic">
       <g id="id4">
        <rect class="BoundingBox" stroke="none" fill="none" x="0" y="0" width="13551" height="13547"/>
        <defs>
         <clipPath id="clip_path_1" clipPathUnits="userSpaceOnUse">
          <path d="M 0,0 L 13550,0 13550,13546 0,13546 0,0 Z"/>
         </clipPath>
        </defs>
        <g clip-path="url(#clip_path_1)">
         <path fill="rgb(76,175,80)" stroke="none" d="M 7798,344 C 7731,290 7643,269 7559,288 L 219,1981 C 90,2011 -1,2126 0,2259 L 0,11854 C 0,11993 102,12112 239,12133 L 7579,13262 C 7733,13285 7877,13180 7901,13026 7903,13011 7904,12997 7904,12983 L 7904,566 C 7904,479 7865,398 7798,344 L 7798,344 Z"/>
         <path fill="rgb(76,175,80)" stroke="none" d="M 13268,12136 L 7622,12136 C 7466,12136 7340,12010 7340,11854 7340,11698 7466,11572 7622,11572 L 12985,11572 12985,1977 7622,1977 C 7466,1977 7340,1850 7340,1694 7340,1539 7466,1412 7622,1412 L 13268,1412 C 13424,1412 13550,1539 13550,1694 L 13550,11854 C 13550,12010 13424,12136 13268,12136 L 13268,12136 Z"/>
         <path fill="rgb(250,250,250)" stroke="none" d="M 5364,9314 C 5266,9314 5176,9264 5124,9181 L 2301,4666 C 2214,4537 2249,4361 2379,4274 2508,4188 2684,4222 2770,4352 2774,4357 2777,4362 2780,4367 L 5603,8883 C 5685,9015 5645,9189 5512,9271 5468,9299 5416,9314 5364,9314 L 5364,9314 Z"/>
         <path fill="rgb(250,250,250)" stroke="none" d="M 2541,9314 C 2385,9314 2259,9187 2259,9031 2259,8979 2274,8927 2302,8882 L 5125,4367 C 5203,4232 5376,4186 5511,4264 5645,4342 5691,4515 5613,4650 5610,4655 5607,4660 5603,4665 L 2781,9181 C 2729,9264 2638,9314 2541,9314 L 2541,9314 Z"/>
         <path fill="rgb(76,175,80)" stroke="none" d="M 9880,12136 C 9724,12136 9598,12010 9598,11854 L 9598,1694 C 9598,1539 9724,1412 9880,1412 10036,1412 10163,1539 10163,1694 L 10163,11854 C 10162,12010 10036,12136 9880,12136 L 9880,12136 Z"/>
         <path fill="rgb(76,175,80)" stroke="none" d="M 13268,10443 L 7622,10443 C 7466,10443 7340,10316 7340,10161 7340,10005 7466,9878 7622,9878 L 13268,9878 C 13424,9878 13550,10005 13550,10161 13550,10316 13424,10443 13268,10443 L 13268,10443 Z"/>
         <path fill="rgb(76,175,80)" stroke="none" d="M 13268,8750 L 7622,8750 C 7466,8750 7340,8623 7340,8467 7340,8312 7466,8185 7622,8185 L 13268,8185 C 13424,8185 13550,8312 13550,8467 13550,8623 13424,8750 13268,8750 L 13268,8750 Z"/>
         <path fill="rgb(76,175,80)" stroke="none" d="M 13268,7056 L 7622,7056 C 7466,7056 7340,6930 7340,6774 7340,6618 7466,6492 7622,6492 L 13268,6492 C 13424,6492 13550,6618 13550,6774 13550,6930 13424,7056 13268,7056 L 13268,7056 Z"/>
         <path fill="rgb(76,175,80)" stroke="none" d="M 13268,5363 L 7622,5363 C 7466,5363 7340,5237 7340,5081 7340,4925 7466,4799 7622,4799 L 13268,4799 C 13424,4799 13550,4925 13550,5081 13550,5237 13424,5363 13268,5363 L 13268,5363 Z"/>
         <path fill="rgb(76,175,80)" stroke="none" d="M 13268,3670 L 7622,3670 C 7466,3670 7340,3543 7340,3388 7340,3232 7466,3105 7622,3105 L 13268,3105 C 13424,3105 13550,3232 13550,3388 13550,3543 13424,3670 13268,3670 L 13268,3670 Z"/>
         <path fill="rgb(0,0,0)" stroke="none" d="M 7622,13265 C 7608,13265 7593,13264 7579,13262 L 239,12133 C 102,12112 0,11993 0,11854 L 0,2259 C 0,2127 91,2013 219,1984 L 7559,291 C 7711,256 7862,351 7897,502 7902,523 7904,544 7904,566 L 7904,12983 C 7904,13139 7778,13265 7622,13265 Z M 7340,12654 L 7340,920 565,2485 565,11612 7340,12654 Z"/>
         <path fill="rgb(0,0,0)" stroke="none" d="M 13268,12136 L 7622,12136 C 7466,12136 7340,12010 7340,11854 7340,11698 7466,11572 7622,11572 L 12985,11572 12985,1977 7622,1977 C 7466,1977 7340,1850 7340,1694 7340,1539 7466,1412 7622,1412 L 13268,1412 C 13424,1412 13550,1539 13550,1694 L 13550,11854 C 13550,12010 13424,12136 13268,12136 L 13268,12136 Z"/>
         <path fill="rgb(0,0,0)" stroke="none" d="M 5364,9314 C 5266,9314 5176,9264 5124,9181 L 2301,4666 C 2219,4534 2259,4360 2391,4277 2523,4195 2697,4235 2780,4367 L 5603,8882 C 5686,9014 5645,9188 5513,9271 L 5513,9271 C 5468,9299 5416,9314 5364,9314 L 5364,9314 Z"/>
         <path fill="rgb(0,0,0)" stroke="none" d="M 2541,9314 C 2488,9314 2436,9299 2391,9271 2259,9189 2219,9014 2301,8882 L 2301,8882 5124,4367 C 5207,4235 5381,4195 5513,4277 5645,4360 5686,4534 5603,4666 L 5603,4666 2780,9181 C 2728,9264 2638,9314 2541,9314 L 2541,9314 Z"/>
         <path fill="rgb(0,0,0)" stroke="none" d="M 9880,12136 C 9724,12136 9598,12010 9598,11854 L 9598,1694 C 9598,1539 9724,1412 9880,1412 10036,1412 10163,1539 10163,1694 L 10163,11854 C 10162,12010 10036,12136 9880,12136 L 9880,12136 Z"/>
         <path fill="rgb(0,0,0)" stroke="none" d="M 13268,10443 L 7622,10443 C 7466,10443 7340,10316 7340,10161 7340,10005 7466,9878 7622,9878 L 13268,9878 C 13424,9878 13550,10005 13550,10161 13550,10316 13424,10443 13268,10443 L 13268,10443 Z"/>
         <path fill="rgb(0,0,0)" stroke="none" d="M 13268,8750 L 7622,8750 C 7466,8750 7340,8623 7340,8467 7340,8312 7466,8185 7622,8185 L 13268,8185 C 13424,8185 13550,8312 13550,8467 13550,8623 13424,8750 13268,8750 L 13268,8750 Z"/>
         <path fill="rgb(0,0,0)" stroke="none" d="M 13268,7056 L 7622,7056 C 7466,7056 7340,6930 7340,6774 7340,6618 7466,6492 7622,6492 L 13268,6492 C 13424,6492 13550,6618 13550,6774 13550,6930 13424,7056 13268,7056 L 13268,7056 Z"/>
         <path fill="rgb(0,0,0)" stroke="none" d="M 13268,5363 L 7622,5363 C 7466,5363 7340,5237 7340,5081 7340,4925 7466,4799 7622,4799 L 13268,4799 C 13424,4799 13550,4925 13550,5081 13550,5237 13424,5363 13268,5363 L 13268,5363 Z"/>
         <path fill="rgb(0,0,0)" stroke="none" d="M 13268,3670 L 7622,3670 C 7466,3670 7340,3543 7340,3388 7340,3232 7466,3105 7622,3105 L 13268,3105 C 13424,3105 13550,3232 13550,3388 13550,3543 13424,3670 13268,3670 L 13268,3670 Z"/>
        </g>
       </g>
      </g>
     </g>
    </g>
   </g>
  </g>
 </g>
</svg>