<svg width="24" height="24" xmlns="http://www.w3.org/2000/svg" fill-rule="evenodd" clip-rule="evenodd">
    <path fill="#7c7c7c" d="M4.57 18.55l2.43.335-1.769 1.7.432 2.415-2.163-1.157-2.163 1.157.432-2.415-1.769-1.7 2.43-.335 1.07-2.207 1.07 2.207zm8.5 0l2.43.335-1.769 1.7.432 2.415-2.163-1.157-2.163 1.157.432-2.415-1.769-1.7 2.43-.335 1.07-2.207 1.07 2.207zm8.5 0l2.43.335-1.769 1.7.432 2.415-2.163-1.157-2.163 1.157.432-2.415-1.769-1.7 2.43-.335 1.07-2.207 1.07 2.207zm-18.473.918l-.917.126.667.641-.163.91.816-.436.816.436-.163-.91.667-.641-.917-.126-.403-.832-.403.832zm8.5 0l-.917.126.667.641-.163.91.816-.436.816.436-.163-.91.667-.641-.917-.126-.403-.832-.403.832zm8.5 0l-.917.126.667.641-.163.91.816-.436.816.436-.163-.91.667-.641-.917-.126-.403-.832-.403.832zm3.903-4.468h-24v-2.059c0-.99.079-1.562 1.249-1.833 1.352-.311 2.61-.585 1.999-1.734-1.852-3.502-.49-5.374 1.468-5.374 1.994 0 3.324 1.943 1.466 5.374-.318.585-.14.944.284 1.195.237-.226.591-.398 1.122-.521 1.683-.389 3.344-.736 2.545-2.209-2.366-4.364-.674-6.839 1.866-6.839 2.491 0 4.226 2.383 1.866 6.839-.775 1.464.826 1.812 2.545 2.209.532.123.887.295 1.123.522.425-.252.604-.61.285-1.196-1.858-3.431-.528-5.374 1.466-5.374 1.958 0 3.32 1.872 1.468 5.374-.61 1.149.647 1.423 1.999 1.734 1.17.271 1.249.843 1.249 1.833v2.059zm-6-1h5v-1.059c0-.783.021-.744-.475-.858-2.277-.536-2.551-.979-2.785-1.49-.162-.355-.27-.936.129-1.688.765-1.447.968-2.67.555-3.354-.393-.652-1.789-.83-2.289.012-.408.685-.197 1.931.562 3.334.407.749.301 1.332.141 1.688-.129.286-.282.581-.886.884.04.266.048.57.048.912v1.619zm-11.953-2.531c-.602-.304-.756-.598-.885-.884-.16-.356-.266-.939.141-1.688.76-1.403.971-2.649.562-3.334-.5-.842-1.896-.664-2.289-.012-.413.684-.21 1.907.555 3.354.399.752.291 1.333.129 1.688-.233.511-.508.954-2.785 1.49-.495.114-.475.075-.475.858v1.059h5v-1.623c0-.341.007-.643.047-.908zm10.953 2.531v-1.619c0-1.127-.03-1.178-.814-1.359-2.751-.634-3.093-1.162-3.359-1.744-.181-.395-.301-1.048.154-1.907 1.022-1.929 1.278-3.582.703-4.538-.437-.725-1.244-.833-1.685-.833-.446 0-1.259.11-1.699.85-.577.969-.318 2.613.712 4.512.465.857.348 1.51.169 1.909-.289.641-.679 1.114-3.368 1.751-.783.181-.813.232-.813 1.355v1.623h10z"/>
</svg>